<?xml version="1.0" standalone="no"?>
<!DOCTYPE svg PUBLIC "-//W3C//DTD SVG 20010904//EN"
 "http://www.w3.org/TR/2001/REC-SVG-20010904/DTD/svg10.dtd">
<svg version="1.0" xmlns="http://www.w3.org/2000/svg"
 width="1024.000000pt" height="1024.000000pt" viewBox="0 0 1024.000000 1024.000000"
 preserveAspectRatio="xMidYMid meet">

<g transform="translate(0.000000,1024.000000) scale(0.100000,-0.100000)"
fill="#000000" stroke="none">
<path d="M0 5120 l0 -5120 5120 0 5120 0 0 5120 0 5120 -5120 0 -5120 0 0
-5120z m5447 3255 c49 -7 120 -17 158 -20 108 -11 272 -50 381 -91 127 -47
353 -161 524 -265 74 -45 147 -89 162 -98 16 -9 28 -24 28 -33 0 -13 11 -20
38 -24 30 -5 41 -12 51 -36 8 -16 30 -42 50 -56 21 -15 55 -49 77 -75 21 -27
63 -77 92 -111 80 -92 229 -299 259 -361 15 -30 34 -57 43 -60 30 -10 173
-322 242 -530 16 -49 38 -104 48 -120 10 -17 24 -69 31 -118 9 -62 16 -87 26
-87 8 0 12 -4 9 -9 -3 -5 -1 -40 4 -77 5 -38 16 -117 24 -175 8 -58 26 -152
40 -210 40 -166 48 -296 43 -730 -4 -380 -5 -399 -31 -524 -14 -71 -29 -183
-33 -247 -5 -102 -8 -118 -23 -118 -14 0 -19 -14 -24 -80 -4 -44 -5 -84 -1
-90 3 -5 -5 -12 -18 -15 -21 -6 -26 -15 -31 -57 -4 -28 -13 -60 -21 -72 -16
-24 -51 -118 -66 -180 -5 -21 -24 -71 -42 -110 -29 -63 -32 -74 -20 -96 7 -14
13 -46 13 -72 l0 -48 -50 0 c-30 0 -50 -4 -50 -11 0 -28 -204 -387 -262 -460
-30 -40 -34 -49 -17 -49 15 0 205 -167 268 -236 29 -32 57 -69 63 -83 16 -42
22 -212 9 -284 -26 -147 -122 -320 -250 -447 -57 -56 -102 -89 -181 -132 -58
-31 -125 -62 -150 -67 -72 -17 -170 -13 -216 8 -67 30 -181 109 -302 208 -62
51 -116 93 -121 93 -4 0 -16 9 -27 21 -17 19 -103 80 -189 134 -17 11 -55 37
-83 58 l-52 37 -123 -31 c-276 -70 -551 -92 -877 -70 -279 19 -608 83 -810
158 -352 131 -769 442 -945 707 -32 49 -69 101 -82 114 -13 14 -23 30 -23 36
0 6 -12 22 -27 36 -14 14 -84 143 -154 287 -107 219 -137 289 -179 430 -154
506 -193 785 -194 1378 -1 453 18 673 90 1020 174 839 490 1325 1172 1800 90
62 288 153 456 209 200 67 551 126 891 150 84 6 290 -4 382 -19z"/>
<path d="M4914 7145 c-225 -40 -433 -162 -572 -338 -130 -163 -252 -428 -252
-547 0 -16 -9 -37 -20 -48 -27 -25 -67 -196 -79 -340 -17 -197 -23 -741 -12
-992 12 -248 46 -526 79 -640 40 -135 157 -399 227 -511 41 -65 112 -157 170
-218 131 -140 335 -227 585 -250 117 -11 191 -4 303 29 226 66 312 115 447
250 253 253 410 635 474 1150 8 69 23 186 32 260 19 150 15 329 -11 525 -8 61
-15 135 -15 165 -1 54 -23 204 -55 370 -26 136 -90 312 -180 495 -109 223
-181 330 -293 436 -163 154 -309 207 -587 214 -111 3 -185 0 -241 -10z"/>
</g>
</svg>
